<?xml version="1.0" encoding="UTF-8" standalone="no"?>
<!DOCTYPE svg PUBLIC "-//W3C//DTD SVG 1.1//EN"
 "http://www.w3.org/Graphics/SVG/1.1/DTD/svg11.dtd">
<!-- Generated by graphviz version 14.1.1 (20251213.1925)
 -->
<!-- Title: Dependencies Pages: 1 -->
<svg width="324pt" height="213pt"
 viewBox="0.00 0.00 324.00 213.00" xmlns="http://www.w3.org/2000/svg" xmlns:xlink="http://www.w3.org/1999/xlink">
<g id="graph0" class="graph" transform="scale(1 1) rotate(0) translate(4 208.5)">
<title>Dependencies</title>
<polygon fill="white" stroke="none" points="-4,4 -4,-208.5 319.5,-208.5 319.5,4 -4,4"/>
<text xml:space="preserve" text-anchor="middle" x="157.75" y="-7.2" font-family="Times New Roman,serif" font-size="14.00">simple_ipc &#45; Dependencies</text>
<!-- simple_ipc -->
<g id="node1" class="node">
<title>simple_ipc</title>
<polygon fill="lightblue" stroke="black" points="76,-132.5 0,-132.5 0,-96.5 76,-96.5 76,-132.5"/>
<text xml:space="preserve" text-anchor="middle" x="38" y="-109.45" font-family="Times New Roman,serif" font-size="14.00">simple_ipc</text>
</g>
<!-- simple_testing -->
<g id="node2" class="node">
<title>simple_testing</title>
<polygon fill="lightblue" stroke="black" points="315.5,-204.5 220,-204.5 220,-168.5 315.5,-168.5 315.5,-204.5"/>
<text xml:space="preserve" text-anchor="middle" x="267.75" y="-181.45" font-family="Times New Roman,serif" font-size="14.00">simple_testing</text>
</g>
<!-- simple_ipc&#45;&gt;simple_testing -->
<g id="edge1" class="edge">
<title>simple_ipc&#45;&gt;simple_testing</title>
<path fill="none" stroke="black" stroke-dasharray="5,2" d="M76.49,-120.5C132.67,-120.5 230.5,-120.5 230.5,-120.5 230.5,-120.5 230.5,-156.6 230.5,-156.6"/>
<polygon fill="black" stroke="black" points="227,-156.6 230.5,-166.6 234,-156.6 227,-156.6"/>
</g>
<!-- base -->
<g id="node3" class="node">
<title>base</title>
<polygon fill="lightgray" stroke="black" points="294.75,-132.5 240.75,-132.5 240.75,-96.5 294.75,-96.5 294.75,-132.5"/>
<text xml:space="preserve" text-anchor="middle" x="267.75" y="-109.45" font-family="Times New Roman,serif" font-size="14.00">base</text>
</g>
<!-- simple_ipc&#45;&gt;base -->
<g id="edge2" class="edge">
<title>simple_ipc&#45;&gt;base</title>
<path fill="none" stroke="black" stroke-dasharray="5,2" d="M76.45,-108.5C76.45,-108.5 228.84,-108.5 228.84,-108.5"/>
<polygon fill="black" stroke="black" points="228.84,-112 238.84,-108.5 228.84,-105 228.84,-112"/>
</g>
<!-- testing -->
<g id="node4" class="node">
<title>testing</title>
<polygon fill="lightgray" stroke="black" points="294.75,-60.5 240.75,-60.5 240.75,-24.5 294.75,-24.5 294.75,-60.5"/>
<text xml:space="preserve" text-anchor="middle" x="267.75" y="-37.45" font-family="Times New Roman,serif" font-size="14.00">testing</text>
</g>
<!-- simple_ipc&#45;&gt;testing -->
<g id="edge3" class="edge">
<title>simple_ipc&#45;&gt;testing</title>
<path fill="none" stroke="black" stroke-dasharray="5,2" d="M37.5,-96.33C37.5,-75 37.5,-42.5 37.5,-42.5 37.5,-42.5 228.92,-42.5 228.92,-42.5"/>
<polygon fill="black" stroke="black" points="228.92,-46 238.92,-42.5 228.92,-39 228.92,-46"/>
</g>
</g>
</svg>
